HIERARCHY
ROOT Hips
{
  OFFSET 58.3306 96.945 11.804
  CHANNELS 6 Xposition Yposition Zposition Zrotation Xrotation Yrotation
  JOINT spine
  {
    OFFSET 0 7.96568 0.458067
    CHANNELS 3 Zrotation Xrotation Yrotation
    JOINT spine1
    {
      OFFSET 0 10.2431 0
      CHANNELS 3 Zrotation Xrotation Yrotation
      JOINT spine2
      {
        OFFSET 0 9.81475 0
        CHANNELS 3 Zrotation Xrotation Yrotation
        JOINT Neck
        {
          OFFSET 0 25.1986 1.20138
          CHANNELS 3 Zrotation Xrotation Yrotation
          JOINT Head
          {
            OFFSET 0 7.61315 0
            CHANNELS 3 Zrotation Xrotation Yrotation
            End Site
            {
              OFFSET 0 18.4281 -6.07733
            }
          }
        }
        JOINT RightShoulder
        {
          OFFSET -4.1327 10.5992 -0.575451
          CHANNELS 3 Zrotation Xrotation Yrotation
          JOINT RightArm
          {
            OFFSET 0 13.9018 0
            CHANNELS 3 Zrotation Xrotation Yrotation
            JOINT RightArmRoll
            {
              OFFSET 0 7.01789 0
              CHANNELS 3 Zrotation Xrotation Yrotation
              JOINT RightForeArm
              {
                OFFSET 0 20.4406 0
                CHANNELS 3 Zrotation Xrotation Yrotation
                JOINT RightForeArmRoll
                {
                  OFFSET 0 7.87515 0
                  CHANNELS 3 Zrotation Xrotation Yrotation
                  JOINT RightHand
                  {
                    OFFSET 0 15.8037 0
                    CHANNELS 3 Zrotation Xrotation Yrotation
                    End Site
                    {
                      OFFSET 0 0 0
                    }
                  }
                }
              }
            }
          }
        }
        JOINT LeftShoulder
        {
          OFFSET 4.1327 10.5992 -0.575451
          CHANNELS 3 Zrotation Xrotation Yrotation
          JOINT LeftArm
          {
            OFFSET 0 13.9018 0
            CHANNELS 3 Zrotation Xrotation Yrotation
            JOINT LeftArmRoll
            {
              OFFSET 0 7.01789 0
              CHANNELS 3 Zrotation Xrotation Yrotation
              JOINT LeftForeArm
              {
                OFFSET 0 20.4406 0
                CHANNELS 3 Zrotation Xrotation Yrotation
                JOINT LeftForeArmRoll
                {
                  OFFSET 0 7.87516 0
                  CHANNELS 3 Zrotation Xrotation Yrotation
                  JOINT LeftHand
                  {
                    OFFSET 0 15.8037 0
                    CHANNELS 3 Zrotation Xrotation Yrotation
                    End Site
                    {
                      OFFSET 0 0 0
                    }
                  }
                }
              }
            }
          }
        }
      }
    }
  }
  JOINT RightUpLeg
  {
    OFFSET -7.06048 -1.2947 -1.0861
    CHANNELS 3 Zrotation Xrotation Yrotation
    JOINT RightUpLegRoll
    {
      OFFSET 0 18.5308 0
      CHANNELS 3 Zrotation Xrotation Yrotation
      JOINT RightLeg
      {
        OFFSET 0 -22.9476 0
        CHANNELS 3 Zrotation Xrotation Yrotation
        JOINT RightLegRoll
        {
          OFFSET 0 23.0226 0
          CHANNELS 3 Zrotation Xrotation Yrotation
          JOINT RightFoot
          {
            OFFSET 0 19.1625 0
            CHANNELS 3 Zrotation Xrotation Yrotation
            JOINT RightToeBase
            {
              OFFSET 0 16.0188 0
              CHANNELS 3 Zrotation Xrotation Yrotation
              End Site
              {
                OFFSET 0.00678979 7.75782 -0.894206
              }
            }
          }
        }
      }
    }
  }
  JOINT LeftUpLeg
  {
    OFFSET 7.06048 -1.2947 -1.0861
    CHANNELS 3 Zrotation Xrotation Yrotation
    JOINT LeftUpLegRoll
    {
      OFFSET 0 18.5309 0
      CHANNELS 3 Zrotation Xrotation Yrotation
      JOINT LeftLeg
      {
        OFFSET 0 22.9475 0
        CHANNELS 3 Zrotation Xrotation Yrotation
        JOINT LeftLegRoll
        {
          OFFSET 0 23.2355 0
          CHANNELS 3 Zrotation Xrotation Yrotation
          JOINT LeftFoot
          {
            OFFSET 0 18.9496 0
            CHANNELS 3 Zrotation Xrotation Yrotation
            JOINT LeftToeBase
            {
              OFFSET 0 16.0188 0
              CHANNELS 3 Zrotation Xrotation Yrotation
              End Site
              {
                OFFSET -0.0304289 7.75782 -0.894207
              }
            }
          }
        }
      }
    }
  }
}
MOTION
Frames: 8
Frame Time: 0.00208333
59.1267 96.9833 11.9705 0.652153 -5.88379 -3.12798 -0.195376 -0.146152 -0.160174 -0.405559 3.7105 -0.287563 -0.402603 5.35555 -0.280949 -9.66278 0.830081 -0.830182 8.89027 4.66903 -1.89866 70.4518 -3.35949 -3.01007 105.835 21.9998 8.89126 -1.11319e-014 -6.36111e-015 -3.18055e-015 4.48327 8.79646 -1.3106 -6.79981e-006 2.75477e-006 -3 8.02964 -4.9514 0.697649 -63.2884 -4.11251 2.87725 -109.386 20.553 -4.24435 -6.54914e-006 1.1578e-006 2.86861e-007 -4.80143 1.08123 0.901049 -3.18781e-006 2.67401e-006 3.00056 -8.02959 -4.95143 -0.697643 174.455 -4.03377 4.96398 180 7.01521e-015 178.815 177.726 6.4241 179.745 6.53085e-007 -2.57208e-006 0.129333 -19.9948 69.3883 20.7659 8.13649 25.2327 -3.48774 -175.96 -5.13395 -1.5352 4.54188e-006 -4.6773e-006 -1.25448 -2.34634 -6.83919 0.0131311 -4.2131e-007 -4.95532e-006 -0.106924 19.3324 68.6158 -20.0694 -8.13649 25.2327 3.48773 
59.1221 96.9854 11.9729 0.652501 -5.88466 -3.12707 -0.195371 -0.146054 -0.15937 -0.405087 3.71016 -0.286511 -0.40209 5.3552 -0.279916 -9.65715 0.801487 -0.838218 8.89946 4.68597 -1.9043 70.4563 -3.36273 -3.01199 105.8 21.9909 8.98024 3.18055e-015 -3.18055e-015 3.18055e-015 4.42618 8.75226 -1.30482 -6.79981e-006 2.75477e-006 -3 8.02964 -4.9514 0.697649 -63.2879 -4.1077 2.8745 -109.331 20.4959 -4.31557 -6.54914e-006 1.1578e-006 2.86861e-007 -4.78564 1.02097 0.897646 -3.18781e-006 2.67401e-006 3.00055 -8.02959 -4.95143 -0.697643 174.455 -4.0381 4.96345 180 7.01521e-015 178.815 177.727 6.41994 179.745 6.53085e-007 -2.57208e-006 0.129333 -19.9951 69.3887 20.7662 8.13649 25.2327 -3.48774 -175.961 -5.14424 -1.53449 4.54188e-006 -4.6773e-006 -1.25448 -2.346 -6.82446 0.013747 -4.2131e-007 -4.95532e-006 -0.106924 19.3279 68.6108 -20.0646 -8.13649 25.2327 3.48773 
59.1262 96.9851 11.9818 0.65295 -5.88561 -3.12612 -0.195362 -0.145932 -0.158542 -0.40463 3.70981 -0.285421 -0.40159 5.35485 -0.278845 -9.65114 0.772721 -0.846465 8.90821 4.70287 -1.91011 70.461 -3.36611 -3.01401 105.765 21.982 9.06892 -2.38542e-015 -6.36111e-015 3.18055e-015 4.3695 8.70755 -1.29903 -6.79981e-006 2.75477e-006 -3 8.02964 -4.9514 0.697649 -63.2877 -4.10229 2.87144 -109.275 20.439 -4.38698 -6.54914e-006 1.1578e-006 2.86861e-007 -4.76985 0.958985 0.894085 -3.18781e-006 2.67401e-006 3.00054 -8.02959 -4.95143 -0.697643 174.455 -4.04253 4.96298 180 7.01521e-015 178.815 177.728 6.41572 179.745 6.53085e-007 -2.57208e-006 0.129333 -19.9956 69.3891 20.7667 8.13649 25.2327 -3.48774 -175.962 -5.15502 -1.53365 4.54188e-006 -4.6773e-006 -1.25448 -2.34562 -6.80892 0.0144041 -4.2131e-007 -4.95532e-006 -0.106924 19.3231 68.6055 -20.0594 -8.13649 25.2327 3.48773 
59.1198 96.9819 11.9769 0.653469 -5.88661 -3.12515 -0.195352 -0.145792 -0.157698 -0.404185 3.70947 -0.284303 -0.401098 5.35451 -0.277747 -9.64487 0.743834 -0.854862 8.91663 4.71976 -1.91603 70.466 -3.3696 -3.0161 105.729 21.9731 9.15737 -3.18055e-015 0 -0 4.3131 8.66246 -1.29322 -6.79981e-006 2.75477e-006 -3 8.02964 -4.9514 0.697649 -63.2877 -4.09646 2.86816 -109.22 20.3823 -4.45851 -6.54914e-006 1.1578e-006 2.86861e-007 -4.75405 0.895784 0.890415 -3.18781e-006 2.67401e-006 3.00052 -8.02959 -4.95143 -0.697643 174.456 -4.04703 4.96254 180 7.01521e-015 178.815 177.729 6.41148 179.745 6.53085e-007 -2.57208e-006 0.129333 -19.9961 69.3897 20.7672 8.13649 25.2327 -3.48774 -175.964 -5.16614 -1.5327 4.54188e-006 -4.6773e-006 -1.25448 -2.34521 -6.79282 0.01509 -4.2131e-007 -4.95532e-006 -0.106924 19.3181 68.5998 -20.054 -8.13649 25.2327 3.48773 
59.1112 96.9841 11.9875 0.654028 -5.88765 -3.12417 -0.195341 -0.145642 -0.156844 -0.403745 3.70913 -0.28317 -0.400611 5.35417 -0.276634 -9.63846 0.714878 -0.863344 8.92488 4.73664 -1.92201 70.4712 -3.37316 -3.01823 105.694 21.9641 9.2457 2.38542e-015 -6.36111e-015 6.36111e-015 4.25688 8.61717 -1.28741 -6.79981e-006 2.75477e-006 -3 8.02964 -4.9514 0.697649 -63.2879 -4.09039 2.86474 -109.164 20.3256 -4.53009 -6.54914e-006 1.1578e-006 2.86861e-007 -4.73825 0.83189 0.886683 -3.18781e-006 2.67401e-006 3.00051 -8.02959 -4.95143 -0.697643 174.456 -4.05157 4.96213 180 7.01521e-015 178.815 177.729 6.40724 179.744 6.53085e-007 -2.57208e-006 0.129333 -19.9966 69.3902 20.7678 8.13649 25.2327 -3.48774 -175.966 -5.17745 -1.53169 4.54188e-006 -4.6773e-006 -1.25448 -2.34479 -6.77639 0.0157924 -4.2131e-007 -4.95532e-006 -0.106924 19.313 68.5941 -20.0485 -8.13649 25.2327 3.48773 
59.127 96.9821 11.9906 0.654597 -5.88868 -3.12318 -0.19533 -0.14549 -0.155988 -0.403307 3.70879 -0.282034 -0.400125 5.35383 -0.275517 -9.63202 0.685904 -0.871847 8.93309 4.75352 -1.92801 70.4763 -3.37672 -3.02036 105.658 21.9551 9.33399 -1.27222e-014 -3.18055e-015 -3.18055e-015 4.2007 8.57183 -1.2816 -6.79981e-006 2.75477e-006 -3 8.02964 -4.9514 0.697649 -63.2881 -4.08425 2.8613 -109.109 20.269 -4.60165 -6.54914e-006 1.1578e-006 2.86861e-007 -4.72247 0.767822 0.882936 -3.18781e-006 2.67401e-006 3.00049 -8.02959 -4.95143 -0.697643 174.456 -4.05612 4.96173 180 7.01521e-015 178.815 177.73 6.403 179.744 6.53085e-007 -2.57208e-006 0.129333 -19.9972 69.3908 20.7684 8.13649 25.2327 -3.48774 -175.967 -5.18882 -1.53067 4.54188e-006 -4.6773e-006 -1.25448 -2.34435 -6.75989 0.0164988 -4.2131e-007 -4.95532e-006 -0.106924 19.3078 68.5883 -20.0429 -8.13649 25.2327 3.48773 
59.1334 96.9908 11.9705 0.655146 -5.88971 -3.12219 -0.195319 -0.145343 -0.155137 -0.402866 3.70844 -0.280905 -0.399637 5.35349 -0.274408 -9.62566 0.656966 -0.880308 8.9414 4.7704 -1.93398 70.4814 -3.38026 -3.02248 105.623 21.9461 9.42232 -1.19271e-014 3.18055e-015 -3.18055e-015 4.14446 8.52659 -1.2758 -6.79981e-006 2.75477e-006 -3 8.02964 -4.9514 0.697649 -63.2882 -4.07824 2.85792 -109.054 20.2123 -4.67311 -6.54914e-006 1.1578e-006 2.86861e-007 -4.70669 0.704101 0.879222 -3.18781e-006 2.67401e-006 3.00047 -8.02959 -4.95143 -0.697643 174.456 -4.06064 4.96131 180 7.01521e-015 178.815 177.731 6.39874 179.744 6.53085e-007 -2.57208e-006 0.129333 -19.9977 69.3914 20.769 8.13649 25.2327 -3.48774 -175.969 -5.20009 -1.52968 4.54188e-006 -4.6773e-006 -1.25448 -2.34393 -6.74354 0.017197 -4.2131e-007 -4.95532e-006 -0.106924 19.3026 68.5825 -20.0374 -8.13649 25.2327 3.48773 
59.1285 96.9876 11.9751 0.655646 -5.8907 -3.12123 -0.195309 -0.145208 -0.154298 -0.402417 3.7081 -0.279795 -0.399143 5.35315 -0.273318 -9.6195 0.628114 -0.888663 8.94993 4.7873 -1.93987 70.4863 -3.38372 -3.02455 105.587 21.937 9.5108 2.3059e-014 -6.36111e-015 6.36111e-015 4.08802 8.48161 -1.27 -6.79981e-006 2.75477e-006 -3 8.02964 -4.9514 0.697649 -63.2882 -4.07253 2.8547 -108.999 20.1554 -4.7444 -6.54914e-006 1.1578e-006 2.86861e-007 -4.69092 0.641246 0.875588 -3.18781e-006 2.67401e-006 3.00046 -8.02959 -4.95143 -0.697643 174.456 -4.06512 4.96087 180 7.01521e-015 178.815 177.732 6.39451 179.744 6.53085e-007 -2.57208e-006 0.129333 -19.9982 69.3919 20.7695 8.13649 25.2327 -3.48774 -175.97 -5.21111 -1.52876 4.54188e-006 -4.6773e-006 -1.25448 -2.34353 -6.7276 0.0178745 -4.2131e-007 -4.95532e-006 -0.106924 19.2977 68.577 -20.0321 -8.13649 25.2327 3.48773 
